<?xml version="1.0" encoding="utf-8" standalone="no"?>
<!DOCTYPE svg PUBLIC "-//W3C//DTD SVG 1.1//EN"
  "http://www.w3.org/Graphics/SVG/1.1/DTD/svg11.dtd">
<svg xmlns:xlink="http://www.w3.org/1999/xlink" width="495.927812pt" height="278.889375pt" viewBox="0 0 495.927812 278.889375" xmlns="http://www.w3.org/2000/svg" version="1.1">
 <metadata>
  <rdf:RDF xmlns:dc="http://purl.org/dc/elements/1.1/" xmlns:cc="http://creativecommons.org/ns#" xmlns:rdf="http://www.w3.org/1999/02/22-rdf-syntax-ns#">
   <cc:Work>
    <dc:type rdf:resource="http://purl.org/dc/dcmitype/StillImage"/>
    <dc:date>2025-05-10T12:37:13.356126</dc:date>
    <dc:format>image/svg+xml</dc:format>
    <dc:creator>
     <cc:Agent>
      <dc:title>Matplotlib v3.7.5, https://matplotlib.org/</dc:title>
     </cc:Agent>
    </dc:creator>
   </cc:Work>
  </rdf:RDF>
 </metadata>
 <defs>
  <style type="text/css">*{stroke-linejoin: round; stroke-linecap: butt}</style>
 </defs>
 <g id="figure_1">
  <g id="patch_1">
   <path d="M 0 278.889375 
L 495.927812 278.889375 
L 495.927812 0 
L 0 0 
L 0 278.889375 
z
" style="fill: none"/>
  </g>
  <g id="axes_1">
   <g id="patch_2">
    <path d="M 41.357813 242.389375 
L 488.727812 242.389375 
L 488.727812 21.789375 
L 41.357813 21.789375 
L 41.357813 242.389375 
z
" style="fill: none"/>
   </g>
   <g id="PolyCollection_1">
    <path d="M -126.336256 242.17887 
L -126.336256 242.389375 
L -122.402798 242.389375 
L -118.46934 242.389375 
L -114.535882 242.389375 
L -110.602424 242.389375 
L -106.668966 242.389375 
L -102.735508 242.389375 
L -98.80205 242.389375 
L -94.868592 242.389375 
L -90.935134 242.389375 
L -87.001676 242.389375 
L -83.068218 242.389375 
L -79.13476 242.389375 
L -75.201302 242.389375 
L -71.267844 242.389375 
L -67.334386 242.389375 
L -63.400928 242.389375 
L -59.46747 242.389375 
L -55.534012 242.389375 
L -51.600554 242.389375 
L -47.667096 242.389375 
L -43.733638 242.389375 
L -39.80018 242.389375 
L -35.866723 242.389375 
L -31.933265 242.389375 
L -27.999807 242.389375 
L -24.066349 242.389375 
L -20.132891 242.389375 
L -16.199433 242.389375 
L -12.265975 242.389375 
L -8.332517 242.389375 
L -4.399059 242.389375 
L -0.465601 242.389375 
L 3.467857 242.389375 
L 7.401315 242.389375 
L 11.334773 242.389375 
L 15.268231 242.389375 
L 19.201689 242.389375 
L 23.135147 242.389375 
L 27.068605 242.389375 
L 31.002063 242.389375 
L 34.935521 242.389375 
L 38.868979 242.389375 
L 42.802437 242.389375 
L 46.735895 242.389375 
L 50.669353 242.389375 
L 54.602811 242.389375 
L 58.536269 242.389375 
L 62.469727 242.389375 
L 66.403185 242.389375 
L 70.336643 242.389375 
L 74.270101 242.389375 
L 78.203559 242.389375 
L 82.137017 242.389375 
L 86.070475 242.389375 
L 90.003933 242.389375 
L 93.937391 242.389375 
L 97.870849 242.389375 
L 101.804307 242.389375 
L 105.737765 242.389375 
L 109.671223 242.389375 
L 113.604681 242.389375 
L 117.538138 242.389375 
L 121.471596 242.389375 
L 125.405054 242.389375 
L 129.338512 242.389375 
L 133.27197 242.389375 
L 137.205428 242.389375 
L 141.138886 242.389375 
L 145.072344 242.389375 
L 149.005802 242.389375 
L 152.93926 242.389375 
L 156.872718 242.389375 
L 160.806176 242.389375 
L 164.739634 242.389375 
L 168.673092 242.389375 
L 172.60655 242.389375 
L 176.540008 242.389375 
L 180.473466 242.389375 
L 184.406924 242.389375 
L 188.340382 242.389375 
L 192.27384 242.389375 
L 196.207298 242.389375 
L 200.140756 242.389375 
L 204.074214 242.389375 
L 208.007672 242.389375 
L 211.94113 242.389375 
L 215.874588 242.389375 
L 219.808046 242.389375 
L 223.741504 242.389375 
L 227.674962 242.389375 
L 231.60842 242.389375 
L 235.541878 242.389375 
L 239.475336 242.389375 
L 243.408794 242.389375 
L 247.342252 242.389375 
L 251.27571 242.389375 
L 255.209168 242.389375 
L 259.142626 242.389375 
L 263.076084 242.389375 
L 267.009541 242.389375 
L 270.942999 242.389375 
L 274.876457 242.389375 
L 278.809915 242.389375 
L 282.743373 242.389375 
L 286.676831 242.389375 
L 290.610289 242.389375 
L 294.543747 242.389375 
L 298.477205 242.389375 
L 302.410663 242.389375 
L 306.344121 242.389375 
L 310.277579 242.389375 
L 314.211037 242.389375 
L 318.144495 242.389375 
L 322.077953 242.389375 
L 326.011411 242.389375 
L 329.944869 242.389375 
L 333.878327 242.389375 
L 337.811785 242.389375 
L 341.745243 242.389375 
L 345.678701 242.389375 
L 349.612159 242.389375 
L 353.545617 242.389375 
L 357.479075 242.389375 
L 361.412533 242.389375 
L 365.345991 242.389375 
L 369.279449 242.389375 
L 373.212907 242.389375 
L 377.146365 242.389375 
L 381.079823 242.389375 
L 385.013281 242.389375 
L 388.946739 242.389375 
L 392.880197 242.389375 
L 396.813655 242.389375 
L 400.747113 242.389375 
L 404.680571 242.389375 
L 408.614029 242.389375 
L 412.547487 242.389375 
L 416.480944 242.389375 
L 420.414402 242.389375 
L 424.34786 242.389375 
L 428.281318 242.389375 
L 432.214776 242.389375 
L 436.148234 242.389375 
L 440.081692 242.389375 
L 444.01515 242.389375 
L 447.948608 242.389375 
L 451.882066 242.389375 
L 455.815524 242.389375 
L 459.748982 242.389375 
L 463.68244 242.389375 
L 467.615898 242.389375 
L 471.549356 242.389375 
L 475.482814 242.389375 
L 479.416272 242.389375 
L 483.34973 242.389375 
L 487.283188 242.389375 
L 491.216646 242.389375 
L 495.150104 242.389375 
L 499.083562 242.389375 
L 503.01702 242.389375 
L 506.950478 242.389375 
L 510.883936 242.389375 
L 514.817394 242.389375 
L 518.750852 242.389375 
L 522.68431 242.389375 
L 526.617768 242.389375 
L 530.551226 242.389375 
L 534.484684 242.389375 
L 538.418142 242.389375 
L 542.3516 242.389375 
L 546.285058 242.389375 
L 550.218516 242.389375 
L 554.151974 242.389375 
L 558.085432 242.389375 
L 562.01889 242.389375 
L 565.952348 242.389375 
L 569.885805 242.389375 
L 573.819263 242.389375 
L 577.752721 242.389375 
L 581.686179 242.389375 
L 585.619637 242.389375 
L 589.553095 242.389375 
L 593.486553 242.389375 
L 597.420011 242.389375 
L 601.353469 242.389375 
L 605.286927 242.389375 
L 609.220385 242.389375 
L 613.153843 242.389375 
L 617.087301 242.389375 
L 621.020759 242.389375 
L 624.954217 242.389375 
L 628.887675 242.389375 
L 632.821133 242.389375 
L 636.754591 242.389375 
L 640.688049 242.389375 
L 644.621507 242.389375 
L 648.554965 242.389375 
L 652.488423 242.389375 
L 656.421881 242.389375 
L 656.421881 241.30935 
L 656.421881 241.30935 
L 652.488423 241.085821 
L 648.554965 240.822018 
L 644.621507 240.511984 
L 640.688049 240.149142 
L 636.754591 239.726276 
L 632.821133 239.235518 
L 628.887675 238.668355 
L 624.954217 238.015642 
L 621.020759 237.267626 
L 617.087301 236.413988 
L 613.153843 235.443905 
L 609.220385 234.346125 
L 605.286927 233.109059 
L 601.353469 231.720891 
L 597.420011 230.169714 
L 593.486553 228.443674 
L 589.553095 226.531132 
L 585.619637 224.420846 
L 581.686179 222.102159 
L 577.752721 219.565196 
L 573.819263 216.801075 
L 569.885805 213.802108 
L 565.952348 210.562009 
L 562.01889 207.076091 
L 558.085432 203.34145 
L 554.151974 199.357139 
L 550.218516 195.124316 
L 546.285058 190.646367 
L 542.3516 185.92901 
L 538.418142 180.980351 
L 534.484684 175.810924 
L 530.551226 170.433683 
L 526.617768 164.863967 
L 522.68431 159.119421 
L 518.750852 153.219889 
L 514.817394 147.187271 
L 510.883936 141.045352 
L 506.950478 134.819603 
L 503.01702 128.536964 
L 499.083562 122.225598 
L 495.150104 115.91465 
L 491.216646 109.633977 
L 487.283188 103.413891 
L 483.34973 97.284888 
L 479.416272 91.277392 
L 475.482814 85.421499 
L 471.549356 79.74673 
L 467.615898 74.281801 
L 463.68244 69.054396 
L 459.748982 64.090963 
L 455.815524 59.416514 
L 451.882066 55.054446 
L 447.948608 51.026362 
L 444.01515 47.35192 
L 440.081692 44.048675 
L 436.148234 41.131945 
L 432.214776 38.614682 
L 428.281318 36.507351 
L 424.34786 34.817828 
L 420.414402 33.551303 
L 416.480944 32.710204 
L 412.547487 32.294137 
L 408.614029 32.299848 
L 404.680571 32.721204 
L 400.747113 33.549209 
L 396.813655 34.772037 
L 392.880197 36.375113 
L 388.946739 38.341216 
L 385.013281 40.650622 
L 381.079823 43.281286 
L 377.146365 46.209054 
L 373.212907 49.407915 
L 369.279449 52.850277 
L 365.345991 56.507282 
L 361.412533 60.349136 
L 357.479075 64.345455 
L 353.545617 68.465632 
L 349.612159 72.679199 
L 345.678701 76.956193 
L 341.745243 81.267511 
L 337.811785 85.585247 
L 333.878327 89.883008 
L 329.944869 94.136202 
L 326.011411 98.322288 
L 322.077953 102.420993 
L 318.144495 106.414482 
L 314.211037 110.287489 
L 310.277579 114.027398 
L 306.344121 117.624282 
L 302.410663 121.070896 
L 298.477205 124.36263 
L 294.543747 127.497415 
L 290.610289 130.475605 
L 286.676831 133.299815 
L 282.743373 135.974736 
L 278.809915 138.506925 
L 274.876457 140.904578 
L 270.942999 143.177287 
L 267.009541 145.33579 
L 263.076084 147.391708 
L 259.142626 149.357297 
L 255.209168 151.245184 
L 251.27571 153.068123 
L 247.342252 154.838756 
L 243.408794 156.569385 
L 239.475336 158.271763 
L 235.541878 159.9569 
L 231.60842 161.634889 
L 227.674962 163.314752 
L 223.741504 165.004311 
L 219.808046 166.710084 
L 215.874588 168.437204 
L 211.94113 170.189361 
L 208.007672 171.968783 
L 204.074214 173.776227 
L 200.140756 175.611013 
L 196.207298 177.471074 
L 192.27384 179.353037 
L 188.340382 181.252325 
L 184.406924 183.163287 
L 180.473466 185.079346 
L 176.540008 186.99316 
L 172.60655 188.896807 
L 168.673092 190.781972 
L 164.739634 192.640151 
L 160.806176 194.462848 
L 156.872718 196.241774 
L 152.93926 197.969046 
L 149.005802 199.637364 
L 145.072344 201.240185 
L 141.138886 202.771867 
L 137.205428 204.227802 
L 133.27197 205.604512 
L 129.338512 206.899727 
L 125.405054 208.112428 
L 121.471596 209.24286 
L 117.538138 210.292517 
L 113.604681 211.264094 
L 109.671223 212.161412 
L 105.737765 212.98932 
L 101.804307 213.753567 
L 97.870849 214.460664 
L 93.937391 215.11772 
L 90.003933 215.732277 
L 86.070475 216.312134 
L 82.137017 216.865167 
L 78.203559 217.399159 
L 74.270101 217.92163 
L 70.336643 218.439687 
L 66.403185 218.95988 
L 62.469727 219.488085 
L 58.536269 220.029402 
L 54.602811 220.58808 
L 50.669353 221.167461 
L 46.735895 221.769953 
L 42.802437 222.397025 
L 38.868979 223.049221 
L 34.935521 223.726204 
L 31.002063 224.426809 
L 27.068605 225.149118 
L 23.135147 225.890549 
L 19.201689 226.647956 
L 15.268231 227.417728 
L 11.334773 228.195906 
L 7.401315 228.978289 
L 3.467857 229.760545 
L -0.465601 230.538313 
L -4.399059 231.307303 
L -8.332517 232.063381 
L -12.265975 232.80265 
L -16.199433 233.521513 
L -20.132891 234.216728 
L -24.066349 234.885453 
L -27.999807 235.525268 
L -31.933265 236.134195 
L -35.866723 236.710705 
L -39.80018 237.253709 
L -43.733638 237.762547 
L -47.667096 238.236963 
L -51.600554 238.677077 
L -55.534012 239.083351 
L -59.46747 239.456552 
L -63.400928 239.797708 
L -67.334386 240.108074 
L -71.267844 240.389081 
L -75.201302 240.642305 
L -79.13476 240.869422 
L -83.068218 241.072176 
L -87.001676 241.252343 
L -90.935134 241.411704 
L -94.868592 241.552018 
L -98.80205 241.675003 
L -102.735508 241.782311 
L -106.668966 241.875522 
L -110.602424 241.956126 
L -114.535882 242.025519 
L -118.46934 242.084996 
L -122.402798 242.13575 
L -126.336256 242.17887 
z
" clip-path="url(#pd4cbd5aa6e)" style="fill: #1f77b4; fill-opacity: 0.45; stroke: #1f77b4; stroke-width: 1.8"/>
   </g>
   <g id="PolyCollection_2">
    <path d="M -93.116179 240.646657 
L -93.116179 242.389375 
L -89.516591 242.389375 
L -85.917003 242.389375 
L -82.317415 242.389375 
L -78.717827 242.389375 
L -75.118239 242.389375 
L -71.518652 242.389375 
L -67.919064 242.389375 
L -64.319476 242.389375 
L -60.719888 242.389375 
L -57.1203 242.389375 
L -53.520712 242.389375 
L -49.921125 242.389375 
L -46.321537 242.389375 
L -42.721949 242.389375 
L -39.122361 242.389375 
L -35.522773 242.389375 
L -31.923185 242.389375 
L -28.323597 242.389375 
L -24.72401 242.389375 
L -21.124422 242.389375 
L -17.524834 242.389375 
L -13.925246 242.389375 
L -10.325658 242.389375 
L -6.72607 242.389375 
L -3.126482 242.389375 
L 0.473105 242.389375 
L 4.072693 242.389375 
L 7.672281 242.389375 
L 11.271869 242.389375 
L 14.871457 242.389375 
L 18.471045 242.389375 
L 22.070633 242.389375 
L 25.67022 242.389375 
L 29.269808 242.389375 
L 32.869396 242.389375 
L 36.468984 242.389375 
L 40.068572 242.389375 
L 43.66816 242.389375 
L 47.267747 242.389375 
L 50.867335 242.389375 
L 54.466923 242.389375 
L 58.066511 242.389375 
L 61.666099 242.389375 
L 65.265687 242.389375 
L 68.865275 242.389375 
L 72.464862 242.389375 
L 76.06445 242.389375 
L 79.664038 242.389375 
L 83.263626 242.389375 
L 86.863214 242.389375 
L 90.462802 242.389375 
L 94.06239 242.389375 
L 97.661977 242.389375 
L 101.261565 242.389375 
L 104.861153 242.389375 
L 108.460741 242.389375 
L 112.060329 242.389375 
L 115.659917 242.389375 
L 119.259505 242.389375 
L 122.859092 242.389375 
L 126.45868 242.389375 
L 130.058268 242.389375 
L 133.657856 242.389375 
L 137.257444 242.389375 
L 140.857032 242.389375 
L 144.456619 242.389375 
L 148.056207 242.389375 
L 151.655795 242.389375 
L 155.255383 242.389375 
L 158.854971 242.389375 
L 162.454559 242.389375 
L 166.054147 242.389375 
L 169.653734 242.389375 
L 173.253322 242.389375 
L 176.85291 242.389375 
L 180.452498 242.389375 
L 184.052086 242.389375 
L 187.651674 242.389375 
L 191.251262 242.389375 
L 194.850849 242.389375 
L 198.450437 242.389375 
L 202.050025 242.389375 
L 205.649613 242.389375 
L 209.249201 242.389375 
L 212.848789 242.389375 
L 216.448377 242.389375 
L 220.047964 242.389375 
L 223.647552 242.389375 
L 227.24714 242.389375 
L 230.846728 242.389375 
L 234.446316 242.389375 
L 238.045904 242.389375 
L 241.645491 242.389375 
L 245.245079 242.389375 
L 248.844667 242.389375 
L 252.444255 242.389375 
L 256.043843 242.389375 
L 259.643431 242.389375 
L 263.243019 242.389375 
L 266.842606 242.389375 
L 270.442194 242.389375 
L 274.041782 242.389375 
L 277.64137 242.389375 
L 281.240958 242.389375 
L 284.840546 242.389375 
L 288.440134 242.389375 
L 292.039721 242.389375 
L 295.639309 242.389375 
L 299.238897 242.389375 
L 302.838485 242.389375 
L 306.438073 242.389375 
L 310.037661 242.389375 
L 313.637248 242.389375 
L 317.236836 242.389375 
L 320.836424 242.389375 
L 324.436012 242.389375 
L 328.0356 242.389375 
L 331.635188 242.389375 
L 335.234776 242.389375 
L 338.834363 242.389375 
L 342.433951 242.389375 
L 346.033539 242.389375 
L 349.633127 242.389375 
L 353.232715 242.389375 
L 356.832303 242.389375 
L 360.431891 242.389375 
L 364.031478 242.389375 
L 367.631066 242.389375 
L 371.230654 242.389375 
L 374.830242 242.389375 
L 378.42983 242.389375 
L 382.029418 242.389375 
L 385.629006 242.389375 
L 389.228593 242.389375 
L 392.828181 242.389375 
L 396.427769 242.389375 
L 400.027357 242.389375 
L 403.626945 242.389375 
L 407.226533 242.389375 
L 410.82612 242.389375 
L 414.425708 242.389375 
L 418.025296 242.389375 
L 421.624884 242.389375 
L 425.224472 242.389375 
L 428.82406 242.389375 
L 432.423648 242.389375 
L 436.023235 242.389375 
L 439.622823 242.389375 
L 443.222411 242.389375 
L 446.821999 242.389375 
L 450.421587 242.389375 
L 454.021175 242.389375 
L 457.620763 242.389375 
L 461.22035 242.389375 
L 464.819938 242.389375 
L 468.419526 242.389375 
L 472.019114 242.389375 
L 475.618702 242.389375 
L 479.21829 242.389375 
L 482.817878 242.389375 
L 486.417465 242.389375 
L 490.017053 242.389375 
L 493.616641 242.389375 
L 497.216229 242.389375 
L 500.815817 242.389375 
L 504.415405 242.389375 
L 508.014992 242.389375 
L 511.61458 242.389375 
L 515.214168 242.389375 
L 518.813756 242.389375 
L 522.413344 242.389375 
L 526.012932 242.389375 
L 529.61252 242.389375 
L 533.212107 242.389375 
L 536.811695 242.389375 
L 540.411283 242.389375 
L 544.010871 242.389375 
L 547.610459 242.389375 
L 551.210047 242.389375 
L 554.809635 242.389375 
L 558.409222 242.389375 
L 562.00881 242.389375 
L 565.608398 242.389375 
L 569.207986 242.389375 
L 572.807574 242.389375 
L 576.407162 242.389375 
L 580.00675 242.389375 
L 583.606337 242.389375 
L 587.205925 242.389375 
L 590.805513 242.389375 
L 594.405101 242.389375 
L 598.004689 242.389375 
L 601.604277 242.389375 
L 605.203864 242.389375 
L 608.803452 242.389375 
L 612.40304 242.389375 
L 616.002628 242.389375 
L 619.602216 242.389375 
L 623.201804 242.389375 
L 623.201804 240.928146 
L 623.201804 240.928146 
L 619.602216 240.592325 
L 616.002628 240.190044 
L 612.40304 239.710763 
L 608.803452 239.142855 
L 605.203864 238.473619 
L 601.604277 237.689321 
L 598.004689 236.775277 
L 594.405101 235.71597 
L 590.805513 234.495217 
L 587.205925 233.096387 
L 583.606337 231.50266 
L 580.00675 229.697353 
L 576.407162 227.664283 
L 572.807574 225.388188 
L 569.207986 222.855185 
L 565.608398 220.053261 
L 562.00881 216.972802 
L 558.409222 213.607112 
L 554.809635 209.952952 
L 551.210047 206.011042 
L 547.610459 201.786533 
L 544.010871 197.289417 
L 540.411283 192.534864 
L 536.811695 187.543455 
L 533.212107 182.341302 
L 529.61252 176.960039 
L 526.012932 171.436668 
L 522.413344 165.813247 
L 518.813756 160.136424 
L 515.214168 154.456819 
L 511.61458 148.828249 
L 508.014992 143.30682 
L 504.415405 137.949899 
L 500.815817 132.814995 
L 497.216229 127.95857 
L 493.616641 123.434815 
L 490.017053 119.294439 
L 486.417465 115.583484 
L 482.817878 112.34223 
L 479.21829 109.604203 
L 475.618702 107.395334 
L 472.019114 105.733298 
L 468.419526 104.627049 
L 464.819938 104.076567 
L 461.22035 104.072843 
L 457.620763 104.598082 
L 454.021175 105.626138 
L 450.421587 107.123151 
L 446.821999 109.048377 
L 443.222411 111.355176 
L 439.622823 113.992135 
L 436.023235 116.904272 
L 432.423648 120.034304 
L 428.82406 123.323925 
L 425.224472 126.715055 
L 421.624884 130.151033 
L 418.025296 133.577709 
L 414.425708 136.944415 
L 410.82612 140.204795 
L 407.226533 143.317457 
L 403.626945 146.24647 
L 400.027357 148.961674 
L 396.427769 151.438824 
L 392.828181 153.659567 
L 389.228593 155.611274 
L 385.629006 157.286744 
L 382.029418 158.683803 
L 378.42983 159.804817 
L 374.830242 160.656155 
L 371.230654 161.247619 
L 367.631066 161.591866 
L 364.031478 161.703854 
L 360.431891 161.600315 
L 356.832303 161.299284 
L 353.232715 160.819688 
L 349.633127 160.181008 
L 346.033539 159.403013 
L 342.433951 158.505559 
L 338.834363 157.508465 
L 335.234776 156.431442 
L 331.635188 155.294064 
L 328.0356 154.115784 
L 324.436012 152.91596 
L 320.836424 151.713892 
L 317.236836 150.528852 
L 313.637248 149.380091 
L 310.037661 148.286814 
L 306.438073 147.26812 
L 302.838485 146.342895 
L 299.238897 145.529663 
L 295.639309 144.846385 
L 292.039721 144.310229 
L 288.440134 143.937292 
L 284.840546 143.742317 
L 281.240958 143.738379 
L 277.64137 143.936587 
L 274.041782 144.345789 
L 270.442194 144.972307 
L 266.842606 145.819711 
L 263.243019 146.888636 
L 259.643431 148.17666 
L 256.043843 149.678237 
L 252.444255 151.384697 
L 248.844667 153.28431 
L 245.245079 155.362404 
L 241.645491 157.60154 
L 238.045904 159.981737 
L 234.446316 162.480723 
L 230.846728 165.074222 
L 227.24714 167.736249 
L 223.647552 170.439413 
L 220.047964 173.155213 
L 216.448377 175.854316 
L 212.848789 178.506826 
L 209.249201 181.082517 
L 205.649613 183.551048 
L 202.050025 185.882156 
L 198.450437 188.045825 
L 194.850849 190.012443 
L 191.251262 191.752961 
L 187.651674 193.239044 
L 184.052086 194.443252 
L 180.452498 195.33923 
L 176.85291 195.901946 
L 173.253322 196.10796 
L 169.653734 195.93575 
L 166.054147 195.366077 
L 162.454559 194.382413 
L 158.854971 192.971398 
L 155.255383 191.123349 
L 151.655795 188.832784 
L 148.056207 186.098956 
L 144.456619 182.926384 
L 140.857032 179.325339 
L 137.257444 175.31229 
L 133.657856 170.910252 
L 130.058268 166.149046 
L 126.45868 161.065416 
L 122.859092 155.703009 
L 119.259505 150.112177 
L 115.659917 144.349611 
L 112.060329 138.477778 
L 108.460741 132.564178 
L 104.861153 126.68042 
L 101.261565 120.901128 
L 97.661977 115.302702 
L 94.06239 109.961963 
L 90.462802 104.954705 
L 86.863214 100.354207 
L 83.263626 96.229734 
L 79.664038 92.645081 
L 76.06445 89.657193 
L 72.464862 87.314918 
L 68.865275 85.65792 
L 65.265687 84.715799 
L 61.666099 84.507439 
L 58.066511 85.040603 
L 54.466923 86.311808 
L 50.867335 88.306452 
L 47.267747 90.999226 
L 43.66816 94.354758 
L 40.068572 98.328506 
L 36.468984 102.867837 
L 32.869396 107.913281 
L 29.269808 113.399903 
L 25.67022 119.258761 
L 22.070633 125.418403 
L 18.471045 131.80635 
L 14.871457 138.350541 
L 11.271869 144.98068 
L 7.672281 151.629475 
L 4.072693 158.23372 
L 0.473105 164.735211 
L -3.126482 171.081484 
L -6.72607 177.226354 
L -10.325658 183.130275 
L -13.925246 188.760503 
L -17.524834 194.091098 
L -21.124422 199.102759 
L -24.72401 203.782525 
L -28.323597 208.123362 
L -31.923185 212.123653 
L -35.522773 215.786622 
L -39.122361 219.119716 
L -42.721949 222.133956 
L -46.321537 224.843295 
L -49.921125 227.263988 
L -53.520712 229.413987 
L -57.1203 231.31239 
L -60.719888 232.978932 
L -64.319476 234.433539 
L -67.919064 235.695945 
L -71.518652 236.785366 
L -75.118239 237.720245 
L -78.717827 238.518045 
L -82.317415 239.195106 
L -85.917003 239.766547 
L -89.516591 240.246213 
L -93.116179 240.646657 
z
" clip-path="url(#pd4cbd5aa6e)" style="fill: #ff7f0e; fill-opacity: 0.45; stroke: #ff7f0e; stroke-width: 1.8"/>
   </g>
   <g id="matplotlib.axis_1">
    <g id="xtick_1">
     <g id="line2d_1">
      <defs>
       <path id="m58139ed54b" d="M 0 0 
L 0 3.5 
" style="stroke: #ffffff; stroke-width: 0.8"/>
      </defs>
      <g>
       <use xlink:href="#m58139ed54b" x="61.692813" y="242.389375" style="fill: #ffffff; stroke: #ffffff; stroke-width: 0.8"/>
      </g>
     </g>
     <g id="text_1">
      <!-- 0.0 -->
      <g style="fill: #ffffff" transform="translate(54.742812 256.547188) scale(0.1 -0.1)">
       <defs>
        <path id="ArialUnicodeMS-30" d="M 1778 4603 
Q 3272 4603 3272 2259 
Q 3272 1075 2886 498 
Q 2500 -78 1778 -78 
Q 288 -78 288 2259 
Q 288 3444 673 4023 
Q 1059 4603 1778 4603 
z
M 1778 384 
Q 2231 384 2462 823 
Q 2694 1263 2694 2259 
Q 2694 2953 2592 3351 
Q 2491 3750 2286 3945 
Q 2081 4141 1772 4141 
Q 1319 4141 1091 3694 
Q 863 3247 863 2259 
Q 863 1575 966 1175 
Q 1069 775 1272 579 
Q 1475 384 1778 384 
z
" transform="scale(0.015625)"/>
        <path id="ArialUnicodeMS-2e" d="M 1209 0 
L 569 0 
L 569 641 
L 1209 641 
L 1209 0 
z
" transform="scale(0.015625)"/>
       </defs>
       <use xlink:href="#ArialUnicodeMS-30"/>
       <use xlink:href="#ArialUnicodeMS-2e" x="55.615234"/>
       <use xlink:href="#ArialUnicodeMS-30" x="83.398438"/>
      </g>
     </g>
    </g>
    <g id="xtick_2">
     <g id="line2d_2">
      <g>
       <use xlink:href="#m58139ed54b" x="143.032812" y="242.389375" style="fill: #ffffff; stroke: #ffffff; stroke-width: 0.8"/>
      </g>
     </g>
     <g id="text_2">
      <!-- 0.2 -->
      <g style="fill: #ffffff" transform="translate(136.082812 256.547188) scale(0.1 -0.1)">
       <defs>
        <path id="ArialUnicodeMS-32" d="M 3231 0 
L 197 0 
Q 197 388 467 784 
Q 738 1181 1478 1778 
Q 1931 2141 2287 2539 
Q 2644 2938 2644 3341 
Q 2644 3688 2398 3914 
Q 2153 4141 1778 4141 
Q 1400 4141 1144 3908 
Q 888 3675 884 3213 
L 306 3278 
Q 359 3922 764 4262 
Q 1169 4603 1791 4603 
Q 2466 4603 2842 4229 
Q 3219 3856 3219 3328 
Q 3219 2888 2901 2436 
Q 2584 1984 1638 1228 
Q 1141 831 978 544 
L 3231 544 
L 3231 0 
z
" transform="scale(0.015625)"/>
       </defs>
       <use xlink:href="#ArialUnicodeMS-30"/>
       <use xlink:href="#ArialUnicodeMS-2e" x="55.615234"/>
       <use xlink:href="#ArialUnicodeMS-32" x="83.398438"/>
      </g>
     </g>
    </g>
    <g id="xtick_3">
     <g id="line2d_3">
      <g>
       <use xlink:href="#m58139ed54b" x="224.372813" y="242.389375" style="fill: #ffffff; stroke: #ffffff; stroke-width: 0.8"/>
      </g>
     </g>
     <g id="text_3">
      <!-- 0.4 -->
      <g style="fill: #ffffff" transform="translate(217.422813 256.547188) scale(0.1 -0.1)">
       <defs>
        <path id="ArialUnicodeMS-34" d="M 3263 1094 
L 2644 1094 
L 2644 0 
L 2081 0 
L 2081 1094 
L 97 1094 
L 97 1613 
L 2181 4581 
L 2644 4581 
L 2644 1613 
L 3263 1613 
L 3263 1094 
z
M 2081 1613 
L 2081 3681 
L 2069 3681 
L 647 1613 
L 2081 1613 
z
" transform="scale(0.015625)"/>
       </defs>
       <use xlink:href="#ArialUnicodeMS-30"/>
       <use xlink:href="#ArialUnicodeMS-2e" x="55.615234"/>
       <use xlink:href="#ArialUnicodeMS-34" x="83.398438"/>
      </g>
     </g>
    </g>
    <g id="xtick_4">
     <g id="line2d_4">
      <g>
       <use xlink:href="#m58139ed54b" x="305.712812" y="242.389375" style="fill: #ffffff; stroke: #ffffff; stroke-width: 0.8"/>
      </g>
     </g>
     <g id="text_4">
      <!-- 0.6 -->
      <g style="fill: #ffffff" transform="translate(298.762812 256.547188) scale(0.1 -0.1)">
       <defs>
        <path id="ArialUnicodeMS-36" d="M 838 2363 
Q 1225 2969 1941 2969 
Q 2503 2969 2897 2553 
Q 3291 2138 3291 1491 
Q 3291 838 2898 380 
Q 2506 -78 1856 -78 
Q 1197 -78 733 409 
Q 269 897 269 2144 
Q 269 3369 689 3986 
Q 1109 4603 1906 4603 
Q 2422 4603 2778 4315 
Q 3134 4028 3213 3463 
L 2650 3413 
Q 2497 4141 1875 4141 
Q 1444 4141 1134 3712 
Q 825 3284 825 2363 
L 838 2363 
z
M 1844 384 
Q 2231 384 2472 696 
Q 2713 1009 2713 1453 
Q 2713 1897 2472 2187 
Q 2231 2478 1825 2478 
Q 1453 2478 1184 2204 
Q 916 1931 916 1484 
Q 916 1028 1180 706 
Q 1444 384 1844 384 
z
" transform="scale(0.015625)"/>
       </defs>
       <use xlink:href="#ArialUnicodeMS-30"/>
       <use xlink:href="#ArialUnicodeMS-2e" x="55.615234"/>
       <use xlink:href="#ArialUnicodeMS-36" x="83.398438"/>
      </g>
     </g>
    </g>
    <g id="xtick_5">
     <g id="line2d_5">
      <g>
       <use xlink:href="#m58139ed54b" x="387.052812" y="242.389375" style="fill: #ffffff; stroke: #ffffff; stroke-width: 0.8"/>
      </g>
     </g>
     <g id="text_5">
      <!-- 0.8 -->
      <g style="fill: #ffffff" transform="translate(380.102812 256.547188) scale(0.1 -0.1)">
       <defs>
        <path id="ArialUnicodeMS-38" d="M 2425 2478 
Q 3284 2203 3284 1306 
Q 3284 716 2862 319 
Q 2441 -78 1778 -78 
Q 1109 -78 689 322 
Q 269 722 269 1325 
Q 269 1759 505 2084 
Q 741 2409 1141 2478 
L 1141 2491 
Q 453 2703 453 3419 
Q 453 3925 815 4264 
Q 1178 4603 1766 4603 
Q 2363 4603 2730 4253 
Q 3097 3903 3097 3406 
Q 3097 2731 2425 2491 
L 2425 2478 
z
M 1778 2700 
Q 2094 2700 2308 2901 
Q 2522 3103 2522 3406 
Q 2522 3716 2305 3928 
Q 2088 4141 1772 4141 
Q 1450 4141 1240 3931 
Q 1031 3722 1031 3438 
Q 1031 3097 1247 2898 
Q 1463 2700 1778 2700 
z
M 1778 384 
Q 2175 384 2440 640 
Q 2706 897 2706 1306 
Q 2706 1716 2432 1978 
Q 2159 2241 1766 2241 
Q 1356 2241 1100 1970 
Q 844 1700 844 1319 
Q 844 922 1108 653 
Q 1372 384 1778 384 
z
" transform="scale(0.015625)"/>
       </defs>
       <use xlink:href="#ArialUnicodeMS-30"/>
       <use xlink:href="#ArialUnicodeMS-2e" x="55.615234"/>
       <use xlink:href="#ArialUnicodeMS-38" x="83.398438"/>
      </g>
     </g>
    </g>
    <g id="xtick_6">
     <g id="line2d_6">
      <g>
       <use xlink:href="#m58139ed54b" x="468.392813" y="242.389375" style="fill: #ffffff; stroke: #ffffff; stroke-width: 0.8"/>
      </g>
     </g>
     <g id="text_6">
      <!-- 1.0 -->
      <g style="fill: #ffffff" transform="translate(461.442813 256.547188) scale(0.1 -0.1)">
       <defs>
        <path id="ArialUnicodeMS-31" d="M 2400 0 
L 1838 0 
L 1838 3584 
Q 1416 3184 709 2906 
L 709 3450 
Q 1681 3916 2034 4603 
L 2400 4603 
L 2400 0 
z
" transform="scale(0.015625)"/>
       </defs>
       <use xlink:href="#ArialUnicodeMS-31"/>
       <use xlink:href="#ArialUnicodeMS-2e" x="55.615234"/>
       <use xlink:href="#ArialUnicodeMS-30" x="83.398438"/>
      </g>
     </g>
    </g>
    <g id="text_7">
     <!-- Win Rate -->
     <g style="fill: #ffffff" transform="translate(244.481875 269.697188) scale(0.1 -0.1)">
      <defs>
       <path id="ArialUnicodeMS-57" d="M 5972 4581 
L 4709 0 
L 4128 0 
L 3128 3609 
Q 3050 3888 3028 4031 
L 3016 4031 
L 2888 3488 
L 1913 0 
L 1300 0 
L 78 4581 
L 697 4581 
L 1403 1575 
Q 1544 984 1581 706 
Q 1588 650 1588 641 
L 1600 641 
Q 1725 1234 1797 1491 
L 2669 4581 
L 3406 4581 
L 4056 2266 
Q 4300 1403 4409 641 
L 4422 641 
Q 4488 1013 4641 1638 
L 5363 4581 
L 5972 4581 
z
" transform="scale(0.015625)"/>
       <path id="ArialUnicodeMS-69" d="M 991 0 
L 428 0 
L 428 3316 
L 991 3316 
L 991 0 
z
M 991 3944 
L 428 3944 
L 428 4581 
L 991 4581 
L 991 3944 
z
" transform="scale(0.015625)"/>
       <path id="ArialUnicodeMS-6e" d="M 3138 0 
L 2572 0 
L 2572 2016 
Q 2572 2525 2389 2715 
Q 2206 2906 1881 2906 
Q 1631 2906 1407 2784 
Q 1184 2663 1090 2441 
Q 997 2219 997 1813 
L 997 0 
L 434 0 
L 434 3316 
L 941 3316 
L 941 2847 
L 953 2847 
Q 1131 3119 1392 3255 
Q 1653 3391 1997 3391 
Q 2259 3391 2515 3297 
Q 2772 3203 2917 3015 
Q 3063 2828 3100 2615 
Q 3138 2403 3138 2041 
L 3138 0 
z
" transform="scale(0.015625)"/>
       <path id="ArialUnicodeMS-20" transform="scale(0.015625)"/>
       <path id="ArialUnicodeMS-52" d="M 4550 0 
L 3788 0 
Q 3103 1081 2937 1328 
Q 2772 1575 2589 1751 
Q 2406 1928 2245 1975 
Q 2084 2022 1819 2022 
L 1119 2022 
L 1119 0 
L 513 0 
L 513 4581 
L 2541 4581 
Q 2956 4581 3237 4528 
Q 3519 4475 3731 4304 
Q 3944 4134 4058 3875 
Q 4172 3616 4172 3328 
Q 4172 2809 3844 2493 
Q 3516 2178 2888 2094 
L 2888 2081 
Q 3347 1878 3750 1247 
L 4550 0 
z
M 1119 2566 
L 2419 2566 
Q 2813 2566 3042 2633 
Q 3272 2700 3409 2894 
Q 3547 3088 3547 3328 
Q 3547 3641 3319 3859 
Q 3091 4078 2566 4078 
L 1119 4078 
L 1119 2566 
z
" transform="scale(0.015625)"/>
       <path id="ArialUnicodeMS-61" d="M 3303 0 
L 2713 0 
Q 2631 156 2597 409 
Q 2031 -78 1375 -78 
Q 850 -78 547 184 
Q 244 447 244 878 
Q 244 1291 536 1558 
Q 828 1825 1550 1913 
L 2075 1991 
Q 2369 2038 2559 2106 
Q 2559 2359 2543 2464 
Q 2528 2569 2451 2681 
Q 2375 2794 2206 2862 
Q 2038 2931 1753 2931 
Q 1391 2931 1180 2797 
Q 969 2663 891 2297 
L 341 2369 
Q 431 2878 806 3134 
Q 1181 3391 1838 3391 
Q 2434 3391 2714 3214 
Q 2994 3038 3058 2788 
Q 3122 2538 3122 2144 
L 3122 1388 
Q 3122 697 3148 461 
Q 3175 225 3303 0 
z
M 2559 1459 
L 2559 1663 
Q 2119 1516 1481 1430 
Q 844 1344 844 891 
Q 844 663 1016 514 
Q 1188 366 1509 366 
Q 1925 366 2242 614 
Q 2559 863 2559 1459 
z
" transform="scale(0.015625)"/>
       <path id="ArialUnicodeMS-74" d="M 1722 6 
Q 1472 -44 1300 -44 
Q 931 -44 762 86 
Q 594 216 556 416 
Q 519 616 519 972 
L 519 2881 
L 109 2881 
L 109 3316 
L 519 3316 
L 519 4141 
L 1081 4481 
L 1081 3316 
L 1644 3316 
L 1644 2881 
L 1081 2881 
L 1081 941 
Q 1081 691 1132 586 
Q 1184 481 1394 481 
Q 1516 481 1644 506 
L 1722 6 
z
" transform="scale(0.015625)"/>
       <path id="ArialUnicodeMS-65" d="M 3309 1516 
L 825 1516 
Q 859 966 1139 675 
Q 1419 384 1838 384 
Q 2159 384 2378 554 
Q 2597 725 2713 1069 
L 3291 997 
Q 3150 478 2775 200 
Q 2400 -78 1838 -78 
Q 1091 -78 670 380 
Q 250 838 250 1631 
Q 250 2416 658 2903 
Q 1066 3391 1806 3391 
Q 2169 3391 2505 3231 
Q 2841 3072 3075 2689 
Q 3309 2306 3309 1516 
z
M 2731 1978 
Q 2697 2484 2417 2707 
Q 2138 2931 1806 2931 
Q 1409 2931 1153 2665 
Q 897 2400 856 1978 
L 2731 1978 
z
" transform="scale(0.015625)"/>
      </defs>
      <use xlink:href="#ArialUnicodeMS-57"/>
      <use xlink:href="#ArialUnicodeMS-69" x="94.384766"/>
      <use xlink:href="#ArialUnicodeMS-6e" x="116.601562"/>
      <use xlink:href="#ArialUnicodeMS-20" x="172.216797"/>
      <use xlink:href="#ArialUnicodeMS-52" x="200"/>
      <use xlink:href="#ArialUnicodeMS-61" x="272.216797"/>
      <use xlink:href="#ArialUnicodeMS-74" x="327.832031"/>
      <use xlink:href="#ArialUnicodeMS-65" x="355.615234"/>
     </g>
    </g>
   </g>
   <g id="matplotlib.axis_2">
    <g id="ytick_1">
     <g id="line2d_7">
      <defs>
       <path id="m237fd7f8ab" d="M 0 0 
L -3.5 0 
" style="stroke: #ffffff; stroke-width: 0.8"/>
      </defs>
      <g>
       <use xlink:href="#m237fd7f8ab" x="41.357813" y="242.389375" style="fill: #ffffff; stroke: #ffffff; stroke-width: 0.8"/>
      </g>
     </g>
     <g id="text_8">
      <!-- 0.0 -->
      <g style="fill: #ffffff" transform="translate(20.457813 245.968281) scale(0.1 -0.1)">
       <use xlink:href="#ArialUnicodeMS-30"/>
       <use xlink:href="#ArialUnicodeMS-2e" x="55.615234"/>
       <use xlink:href="#ArialUnicodeMS-30" x="83.398438"/>
      </g>
     </g>
    </g>
    <g id="ytick_2">
     <g id="line2d_8">
      <g>
       <use xlink:href="#m237fd7f8ab" x="41.357813" y="214.581778" style="fill: #ffffff; stroke: #ffffff; stroke-width: 0.8"/>
      </g>
     </g>
     <g id="text_9">
      <!-- 0.2 -->
      <g style="fill: #ffffff" transform="translate(20.457813 218.160685) scale(0.1 -0.1)">
       <use xlink:href="#ArialUnicodeMS-30"/>
       <use xlink:href="#ArialUnicodeMS-2e" x="55.615234"/>
       <use xlink:href="#ArialUnicodeMS-32" x="83.398438"/>
      </g>
     </g>
    </g>
    <g id="ytick_3">
     <g id="line2d_9">
      <g>
       <use xlink:href="#m237fd7f8ab" x="41.357813" y="186.774182" style="fill: #ffffff; stroke: #ffffff; stroke-width: 0.8"/>
      </g>
     </g>
     <g id="text_10">
      <!-- 0.4 -->
      <g style="fill: #ffffff" transform="translate(20.457813 190.353088) scale(0.1 -0.1)">
       <use xlink:href="#ArialUnicodeMS-30"/>
       <use xlink:href="#ArialUnicodeMS-2e" x="55.615234"/>
       <use xlink:href="#ArialUnicodeMS-34" x="83.398438"/>
      </g>
     </g>
    </g>
    <g id="ytick_4">
     <g id="line2d_10">
      <g>
       <use xlink:href="#m237fd7f8ab" x="41.357813" y="158.966585" style="fill: #ffffff; stroke: #ffffff; stroke-width: 0.8"/>
      </g>
     </g>
     <g id="text_11">
      <!-- 0.6 -->
      <g style="fill: #ffffff" transform="translate(20.457813 162.545491) scale(0.1 -0.1)">
       <use xlink:href="#ArialUnicodeMS-30"/>
       <use xlink:href="#ArialUnicodeMS-2e" x="55.615234"/>
       <use xlink:href="#ArialUnicodeMS-36" x="83.398438"/>
      </g>
     </g>
    </g>
    <g id="ytick_5">
     <g id="line2d_11">
      <g>
       <use xlink:href="#m237fd7f8ab" x="41.357813" y="131.158988" style="fill: #ffffff; stroke: #ffffff; stroke-width: 0.8"/>
      </g>
     </g>
     <g id="text_12">
      <!-- 0.8 -->
      <g style="fill: #ffffff" transform="translate(20.457813 134.737895) scale(0.1 -0.1)">
       <use xlink:href="#ArialUnicodeMS-30"/>
       <use xlink:href="#ArialUnicodeMS-2e" x="55.615234"/>
       <use xlink:href="#ArialUnicodeMS-38" x="83.398438"/>
      </g>
     </g>
    </g>
    <g id="ytick_6">
     <g id="line2d_12">
      <g>
       <use xlink:href="#m237fd7f8ab" x="41.357813" y="103.351392" style="fill: #ffffff; stroke: #ffffff; stroke-width: 0.8"/>
      </g>
     </g>
     <g id="text_13">
      <!-- 1.0 -->
      <g style="fill: #ffffff" transform="translate(20.457813 106.930298) scale(0.1 -0.1)">
       <use xlink:href="#ArialUnicodeMS-31"/>
       <use xlink:href="#ArialUnicodeMS-2e" x="55.615234"/>
       <use xlink:href="#ArialUnicodeMS-30" x="83.398438"/>
      </g>
     </g>
    </g>
    <g id="ytick_7">
     <g id="line2d_13">
      <g>
       <use xlink:href="#m237fd7f8ab" x="41.357813" y="75.543795" style="fill: #ffffff; stroke: #ffffff; stroke-width: 0.8"/>
      </g>
     </g>
     <g id="text_14">
      <!-- 1.2 -->
      <g style="fill: #ffffff" transform="translate(20.457813 79.122701) scale(0.1 -0.1)">
       <use xlink:href="#ArialUnicodeMS-31"/>
       <use xlink:href="#ArialUnicodeMS-2e" x="55.615234"/>
       <use xlink:href="#ArialUnicodeMS-32" x="83.398438"/>
      </g>
     </g>
    </g>
    <g id="ytick_8">
     <g id="line2d_14">
      <g>
       <use xlink:href="#m237fd7f8ab" x="41.357813" y="47.736198" style="fill: #ffffff; stroke: #ffffff; stroke-width: 0.8"/>
      </g>
     </g>
     <g id="text_15">
      <!-- 1.4 -->
      <g style="fill: #ffffff" transform="translate(20.457813 51.315105) scale(0.1 -0.1)">
       <use xlink:href="#ArialUnicodeMS-31"/>
       <use xlink:href="#ArialUnicodeMS-2e" x="55.615234"/>
       <use xlink:href="#ArialUnicodeMS-34" x="83.398438"/>
      </g>
     </g>
    </g>
    <g id="text_16">
     <!-- Density -->
     <g style="fill: #ffffff" transform="translate(14.357813 148.76125) rotate(-90) scale(0.1 -0.1)">
      <defs>
       <path id="ArialUnicodeMS-44" d="M 513 4581 
L 2094 4581 
Q 2509 4581 2809 4539 
Q 3109 4497 3382 4333 
Q 3656 4169 3861 3881 
Q 4066 3594 4183 3220 
Q 4300 2847 4300 2316 
Q 4300 1303 3819 651 
Q 3338 0 2163 0 
L 513 0 
L 513 4581 
z
M 1119 544 
L 2100 544 
Q 2400 544 2636 581 
Q 2872 619 3114 784 
Q 3356 950 3515 1328 
Q 3675 1706 3675 2328 
Q 3675 2672 3614 2970 
Q 3553 3269 3389 3514 
Q 3225 3759 3012 3873 
Q 2800 3988 2598 4013 
Q 2397 4038 2081 4038 
L 1119 4038 
L 1119 544 
z
" transform="scale(0.015625)"/>
       <path id="ArialUnicodeMS-73" d="M 2278 2388 
Q 2241 2659 2058 2795 
Q 1875 2931 1550 2931 
Q 1228 2931 1029 2822 
Q 831 2713 831 2503 
Q 831 2306 989 2222 
Q 1147 2138 1613 2016 
Q 2138 1881 2398 1778 
Q 2659 1675 2804 1489 
Q 2950 1303 2950 972 
Q 2950 528 2587 225 
Q 2225 -78 1619 -78 
Q 988 -78 633 189 
Q 278 456 197 991 
L 756 1075 
Q 800 728 1014 556 
Q 1228 384 1613 384 
Q 1981 384 2178 539 
Q 2375 694 2375 916 
Q 2375 1066 2284 1156 
Q 2194 1247 2058 1292 
Q 1922 1338 1447 1453 
Q 741 1622 514 1862 
Q 288 2103 288 2438 
Q 288 2853 619 3122 
Q 950 3391 1509 3391 
Q 2103 3391 2433 3158 
Q 2763 2925 2828 2463 
L 2278 2388 
z
" transform="scale(0.015625)"/>
       <path id="ArialUnicodeMS-79" d="M 3150 3316 
L 1881 -56 
Q 1878 -63 1875 -78 
Q 1694 -641 1451 -992 
Q 1209 -1344 763 -1344 
Q 613 -1344 397 -1281 
L 341 -750 
Q 503 -800 659 -800 
Q 972 -800 1092 -628 
Q 1213 -456 1363 -6 
L 103 3316 
L 709 3316 
L 1491 1144 
Q 1559 944 1638 628 
L 1650 628 
Q 1728 991 1850 1319 
L 2578 3316 
L 3150 3316 
z
" transform="scale(0.015625)"/>
      </defs>
      <use xlink:href="#ArialUnicodeMS-44"/>
      <use xlink:href="#ArialUnicodeMS-65" x="72.216797"/>
      <use xlink:href="#ArialUnicodeMS-6e" x="127.832031"/>
      <use xlink:href="#ArialUnicodeMS-73" x="183.447266"/>
      <use xlink:href="#ArialUnicodeMS-69" x="233.447266"/>
      <use xlink:href="#ArialUnicodeMS-74" x="255.664062"/>
      <use xlink:href="#ArialUnicodeMS-79" x="283.447266"/>
     </g>
    </g>
   </g>
   <g id="text_17">
    <!-- Host vs. Non-Host Win-Rate Distribution -->
    <g style="fill: #ffffff" transform="translate(158.016875 15.789375) scale(0.12 -0.12)">
     <defs>
      <path id="ArialUnicodeMS-48" d="M 4109 0 
L 3500 0 
L 3500 2156 
L 1119 2156 
L 1119 0 
L 513 0 
L 513 4581 
L 1119 4581 
L 1119 2700 
L 3500 2700 
L 3500 4581 
L 4109 4581 
L 4109 0 
z
" transform="scale(0.015625)"/>
      <path id="ArialUnicodeMS-6f" d="M 1778 3391 
Q 2450 3391 2892 2953 
Q 3334 2516 3334 1709 
Q 3334 731 2856 326 
Q 2378 -78 1778 -78 
Q 1150 -78 687 337 
Q 225 753 225 1656 
Q 225 2531 672 2961 
Q 1119 3391 1778 3391 
z
M 1778 384 
Q 2259 384 2509 740 
Q 2759 1097 2759 1678 
Q 2759 2300 2476 2615 
Q 2194 2931 1778 2931 
Q 1350 2931 1075 2611 
Q 800 2291 800 1656 
Q 800 1025 1079 704 
Q 1359 384 1778 384 
z
" transform="scale(0.015625)"/>
      <path id="ArialUnicodeMS-76" d="M 3122 3316 
L 1869 0 
L 1344 0 
L 84 3316 
L 678 3316 
L 1363 1397 
Q 1556 853 1594 659 
L 1606 659 
Q 1656 859 1778 1197 
L 2547 3316 
L 3122 3316 
z
" transform="scale(0.015625)"/>
      <path id="ArialUnicodeMS-4e" d="M 4109 0 
L 3488 0 
L 1094 3597 
L 1081 3597 
L 1081 0 
L 506 0 
L 506 4581 
L 1125 4581 
L 3519 984 
L 3531 984 
L 3531 4581 
L 4109 4581 
L 4109 0 
z
" transform="scale(0.015625)"/>
      <path id="ArialUnicodeMS-2d" d="M 1925 1375 
L 206 1375 
L 206 1941 
L 1925 1941 
L 1925 1375 
z
" transform="scale(0.015625)"/>
      <path id="ArialUnicodeMS-72" d="M 2216 3213 
L 2022 2694 
Q 1813 2816 1613 2816 
Q 1297 2816 1134 2533 
Q 972 2250 972 1741 
L 972 0 
L 409 0 
L 409 3316 
L 922 3316 
L 922 2816 
L 934 2816 
Q 1203 3391 1638 3391 
Q 1925 3391 2216 3213 
z
" transform="scale(0.015625)"/>
      <path id="ArialUnicodeMS-62" d="M 1006 2944 
Q 1319 3391 1900 3391 
Q 2541 3391 2925 2925 
Q 3309 2459 3309 1709 
Q 3309 844 2879 383 
Q 2450 -78 1875 -78 
Q 1291 -78 966 416 
L 953 416 
L 953 0 
L 428 0 
L 428 4581 
L 991 4581 
L 991 2944 
L 1006 2944 
z
M 1831 384 
Q 2222 384 2476 720 
Q 2731 1056 2731 1663 
Q 2731 2247 2497 2589 
Q 2263 2931 1850 2931 
Q 1444 2931 1195 2578 
Q 947 2225 947 1684 
Q 947 1156 1050 932 
Q 1153 709 1361 546 
Q 1569 384 1831 384 
z
" transform="scale(0.015625)"/>
      <path id="ArialUnicodeMS-75" d="M 3116 0 
L 2613 0 
L 2613 488 
L 2597 488 
Q 2216 -78 1556 -78 
Q 1209 -78 914 83 
Q 619 244 520 526 
Q 422 809 422 1259 
L 422 3316 
L 984 3316 
L 984 1478 
Q 984 1038 1026 847 
Q 1069 656 1247 532 
Q 1425 409 1672 409 
Q 1991 409 2272 629 
Q 2553 850 2553 1544 
L 2553 3316 
L 3116 3316 
L 3116 0 
z
" transform="scale(0.015625)"/>
     </defs>
     <use xlink:href="#ArialUnicodeMS-48"/>
     <use xlink:href="#ArialUnicodeMS-6f" x="72.216797"/>
     <use xlink:href="#ArialUnicodeMS-73" x="127.832031"/>
     <use xlink:href="#ArialUnicodeMS-74" x="177.832031"/>
     <use xlink:href="#ArialUnicodeMS-20" x="205.615234"/>
     <use xlink:href="#ArialUnicodeMS-76" x="233.398438"/>
     <use xlink:href="#ArialUnicodeMS-73" x="283.398438"/>
     <use xlink:href="#ArialUnicodeMS-2e" x="333.398438"/>
     <use xlink:href="#ArialUnicodeMS-20" x="361.181641"/>
     <use xlink:href="#ArialUnicodeMS-4e" x="388.964844"/>
     <use xlink:href="#ArialUnicodeMS-6f" x="461.181641"/>
     <use xlink:href="#ArialUnicodeMS-6e" x="516.796875"/>
     <use xlink:href="#ArialUnicodeMS-2d" x="572.412109"/>
     <use xlink:href="#ArialUnicodeMS-48" x="605.712891"/>
     <use xlink:href="#ArialUnicodeMS-6f" x="677.929688"/>
     <use xlink:href="#ArialUnicodeMS-73" x="733.544922"/>
     <use xlink:href="#ArialUnicodeMS-74" x="783.544922"/>
     <use xlink:href="#ArialUnicodeMS-20" x="811.328125"/>
     <use xlink:href="#ArialUnicodeMS-57" x="839.111328"/>
     <use xlink:href="#ArialUnicodeMS-69" x="933.496094"/>
     <use xlink:href="#ArialUnicodeMS-6e" x="955.712891"/>
     <use xlink:href="#ArialUnicodeMS-2d" x="1011.328125"/>
     <use xlink:href="#ArialUnicodeMS-52" x="1044.628906"/>
     <use xlink:href="#ArialUnicodeMS-61" x="1116.845703"/>
     <use xlink:href="#ArialUnicodeMS-74" x="1172.460938"/>
     <use xlink:href="#ArialUnicodeMS-65" x="1200.244141"/>
     <use xlink:href="#ArialUnicodeMS-20" x="1255.859375"/>
     <use xlink:href="#ArialUnicodeMS-44" x="1283.642578"/>
     <use xlink:href="#ArialUnicodeMS-69" x="1355.859375"/>
     <use xlink:href="#ArialUnicodeMS-73" x="1378.076172"/>
     <use xlink:href="#ArialUnicodeMS-74" x="1428.076172"/>
     <use xlink:href="#ArialUnicodeMS-72" x="1455.859375"/>
     <use xlink:href="#ArialUnicodeMS-69" x="1489.160156"/>
     <use xlink:href="#ArialUnicodeMS-62" x="1511.376953"/>
     <use xlink:href="#ArialUnicodeMS-75" x="1566.992188"/>
     <use xlink:href="#ArialUnicodeMS-74" x="1622.607422"/>
     <use xlink:href="#ArialUnicodeMS-69" x="1650.390625"/>
     <use xlink:href="#ArialUnicodeMS-6f" x="1672.607422"/>
     <use xlink:href="#ArialUnicodeMS-6e" x="1728.222656"/>
    </g>
   </g>
   <g id="legend_1">
    <g id="patch_3">
     <path d="M 407.493437 58.089375 
L 481.727812 58.089375 
Q 483.727812 58.089375 483.727812 56.089375 
L 483.727812 28.789375 
Q 483.727812 26.789375 481.727812 26.789375 
L 407.493437 26.789375 
Q 405.493437 26.789375 405.493437 28.789375 
L 405.493437 56.089375 
Q 405.493437 58.089375 407.493437 58.089375 
L 407.493437 58.089375 
z
" style="fill: none; opacity: 0.8"/>
    </g>
    <g id="patch_4">
     <path d="M 409.493437 37.947188 
L 429.493437 37.947188 
L 429.493437 30.947188 
L 409.493437 30.947188 
z
" style="fill: #1f77b4; fill-opacity: 0.45; stroke: #1f77b4; stroke-width: 1.8; stroke-linejoin: miter"/>
    </g>
    <g id="text_18">
     <!-- Host -->
     <g style="fill: #ffffff" transform="translate(437.493437 37.947188) scale(0.1 -0.1)">
      <use xlink:href="#ArialUnicodeMS-48"/>
      <use xlink:href="#ArialUnicodeMS-6f" x="72.216797"/>
      <use xlink:href="#ArialUnicodeMS-73" x="127.832031"/>
      <use xlink:href="#ArialUnicodeMS-74" x="177.832031"/>
     </g>
    </g>
    <g id="patch_5">
     <path d="M 409.493437 52.097188 
L 429.493437 52.097188 
L 429.493437 45.097188 
L 409.493437 45.097188 
z
" style="fill: #ff7f0e; fill-opacity: 0.45; stroke: #ff7f0e; stroke-width: 1.8; stroke-linejoin: miter"/>
    </g>
    <g id="text_19">
     <!-- Non-Host -->
     <g style="fill: #ffffff" transform="translate(437.493437 52.097188) scale(0.1 -0.1)">
      <use xlink:href="#ArialUnicodeMS-4e"/>
      <use xlink:href="#ArialUnicodeMS-6f" x="72.216797"/>
      <use xlink:href="#ArialUnicodeMS-6e" x="127.832031"/>
      <use xlink:href="#ArialUnicodeMS-2d" x="183.447266"/>
      <use xlink:href="#ArialUnicodeMS-48" x="216.748047"/>
      <use xlink:href="#ArialUnicodeMS-6f" x="288.964844"/>
      <use xlink:href="#ArialUnicodeMS-73" x="344.580078"/>
      <use xlink:href="#ArialUnicodeMS-74" x="394.580078"/>
     </g>
    </g>
   </g>
  </g>
 </g>
 <defs>
  <clipPath id="pd4cbd5aa6e">
   <rect x="41.357813" y="21.789375" width="447.37" height="220.6"/>
  </clipPath>
 </defs>
</svg>
